#!OML:ASF E:\Mandelcareful walks\Project 1\Capture day 1\Session 1\Subject1.ASF
:FULLY-SPECIFIED
:DEGREES
302
root 21.1738 16.5118 2.54699 128.038 81.4474 121.105
lowerback 19.6818 -3.63257 -6.34731
upperback 7.07202 -5.46392 -1.95079
thorax -2.89026 -2.51981 2.65021
lowerneck -24.645 9.53157 2.49055
upperneck 23.0993 16.5902 -12.3351
head 13.2507 6.01416 -1.94141
rclavicle -1.21259e-014 -2.78299e-015
rhumerus -48.6957 -4.46999 -70.1156
rradius 43.9108
rwrist -18.9853
rhand -4.70702 -21.7192
rfingers 7.12502
rthumb 21.0749 -50.594
lclavicle -1.21259e-014 -2.78299e-015
lhumerus -12.087 -19.2077 66.7205
lradius 93.412
lwrist 25.9361
lhand -37.4589 -31.9709
lfingers 7.12502
lthumb -10.5173 -2.25403
rfemur -47.4829 -11.7708 7.84022
rtibia 37.5056
rfoot 1.01647 -15.4708
rtoes -14.3587
lfemur -1.23058 8.11918 -21.4879
ltibia 45.5393
lfoot -3.30235 -1.94593
ltoes -14.4563
303
root 21.8071 16.5719 2.63911 130.689 80.7047 123.651
lowerback 18.465 -3.97877 -6.29847
upperback 7.28363 -5.80726 -1.99241
thorax -2.01478 -2.72649 2.54248
lowerneck -25.0463 9.43606 2.386
upperneck 23.5737 16.5558 -12.2159
head 13.4998 5.95669 -1.87544
rclavicle 3.02153e-014 -1.03368e-014
rhumerus -48.8159 -5.0913 -69.4558
rradius 44.0616
rwrist -17.9823
rhand -2.49387 -21.5143
rfingers 7.12502
rthumb 23.1996 -50.137
lclavicle 3.02153e-014 -1.03368e-014
lhumerus -12.633 -19.867 67.1615
lradius 93.5402
lwrist 27.1604
lhand -37.5781 -30.9699
lfingers 7.12502
lthumb -10.6323 -1.25889
rfemur -46.4665 -12.4834 7.94751
rtibia 35.8229
rfoot 1.78276 -18.5215
rtoes -15.6579
lfemur -1.0424 7.33639 -20.8674
ltibia 47.352
lfoot 0.866506 -1.62921
ltoes -12.5763
304
root 22.422 16.5855 2.73109 133.08 79.8333 126.259
lowerback 17.9178 -4.25441 -6.30857
upperback 7.42562 -6.1138 -1.98196
thorax -1.54991 -2.89594 2.56004
lowerneck -25.0227 9.36209 2.51028
upperneck 23.6787 16.5481 -12.5425
head 13.5933 5.92051 -2.02082
rclavicle 1.08934e-013 1.51076e-014
rhumerus -48.7977 -5.25647 -68.8944
rradius 44.3907
rwrist -17.5236
rhand -1.19309 -21.0291
rfingers 7.12502
rthumb 24.4471 -49.4891
lclavicle 1.08934e-013 1.51076e-014
lhumerus -13.5642 -20.7475 68.0135
lradius 92.7912
lwrist 27.6419
lhand -37.5228 -32.3924
lfingers 7.12502
lthumb -10.579 -2.67861
rfemur -45.2091 -13.8969 8.29067
rtibia 35.6129
rfoot 1.15156 -20.9643
rtoes -9.31116
lfemur -1.42189 6.72164 -20.2748
ltibia 50.521
lfoot 3.54651 -0.997267
ltoes -13.9209
305
root 23.0074 16.5495 2.82666 135.723 79.073 129.128
lowerback 17.8034 -4.41138 -6.17236
upperback 7.39994 -6.28818 -1.87015
thorax -1.50639 -2.98373 2.62311
lowerneck -25.0409 9.15451 2.36767
upperneck 23.9059 16.3638 -12.5444
head 13.6638 5.81816 -2.03952
rclavicle -2.79292e-014 -1.37161e-014
rhumerus -48.7799 -5.15884 -68.3911
rradius 44.9904
rwrist -17.6651
rhand -0.948917 -20.6428
rfingers 7.12502
rthumb 24.6812 -49.0711
lclavicle -2.79292e-014 -1.37161e-014
lhumerus -14.84 -21.8515 69.1836
lradius 91.8092
lwrist 28.0602
lhand -36.5916 -32.6674
lfingers 7.12502
lthumb -9.68061 -2.90985
rfemur -44.38 -15.667 9.05909
rtibia 36.5127
rfoot 3.68382 -20.1046
rtoes -2.58501
lfemur -2.52269 6.37655 -19.5007
ltibia 54.7886
lfoot 5.72843 0.516147
ltoes -12.8602
306
root 23.5868 16.463 2.91253 136.686 78.9345 130.838
lowerback 18.1189 -4.32818 -5.76563
upperback 7.64085 -6.09403 -1.76045
thorax -1.46289 -2.87682 2.49558
lowerneck -25.6415 8.8136 1.86041
upperneck 24.3923 16.0001 -12.0363
head 13.8487 5.62373 -1.82775
rclavicle -4.77083e-015 -1.72943e-014
rhumerus -48.2777 -4.8224 -68.1214
rradius 45.8884
rwrist -18.1436
rhand -1.01359 -20.7583
rfingers 7.12502
rthumb 24.6192 -49.1949
lclavicle -4.77083e-015 -1.72943e-014
lhumerus -15.998 -22.9759 70.2997
lradius 90.3484
lwrist 28.1357
lhand -35.1532 -30.0758
lfingers 7.12502
lthumb -8.29266 -0.258539
rfemur -43.1492 -17.4481 10.4173
rtibia 38.3584
rfoot 4.42055 -16.931
rtoes 13.3558
lfemur -3.32587 6.61801 -18.3592
ltibia 59.6451
lfoot 4.46226 1.56361
ltoes -13.0495
307
root 24.1494 16.3462 2.99342 136.932 78.9509 132.025
lowerback 18.9397 -4.17954 -5.43746
upperback 7.78872 -5.85792 -1.63439
thorax -1.76889 -2.73564 2.46373
lowerneck -25.4997 8.57683 1.97441
upperneck 24.3188 15.7185 -12.3565
head 13.8157 5.48727 -2.03274
rclavicle -5.35228e-014 -5.06901e-015
rhumerus -47.5315 -3.87824 -67.9977
rradius 46.9609
rwrist -18.6424
rhand -1.08943 -20.9735
rfingers 7.12502
rthumb 24.5465 -49.4201
lclavicle -5.35228e-014 -5.06901e-015
lhumerus -17.6674 -24.0903 71.5343
lradius 88.2988
lwrist 27.8949
lhand -34.203 -28.5342
lfingers 7.12502
lthumb -7.37556 1.31723
rfemur -41.5334 -18.5135 11.3206
rtibia 40.9718
rfoot -1.13681 -15.113
rtoes 14.4727
lfemur -4.36714 7.07067 -17.182
ltibia 64.8675
lfoot 2.03687 1.76268
ltoes -12.7471
308
root 24.7003 16.2196 3.05754 134.681 79.5783 131.276
lowerback 20.4275 -3.83833 -4.88327
upperback 8.10775 -5.33023 -1.63052
thorax -2.28217 -2.42778 2.15389
lowerneck -25.4309 8.39741 1.99404
upperneck 24.1442 15.4484 -12.4509
head 13.7173 5.37638 -2.13015
rclavicle 5.71009e-014 3.35449e-014
rhumerus -46.3073 -2.85316 -67.9951
rradius 47.9864
rwrist -18.8437
rhand -1.59237 -21.2125
rfingers 7.12502
rthumb 24.0643 -49.7237
lclavicle 5.71009e-014 3.35449e-014
lhumerus -19.4547 -25.2041 72.7661
lradius 85.5223
lwrist 27.6396
lhand -33.0135 -29.2331
lfingers 7.12502
lthumb -6.22729 0.655349
rfemur -39.3739 -18.1804 11.6124
rtibia 44.0654
rfoot -4.6557 -12.5373
rtoes 10.3348
lfemur -4.98149 8.1628 -15.7959
ltibia 69.9321
lfoot 0.182305 1.66143
ltoes -14.0048
